<svg width="25" height="24" viewBox="0 0 25 24" fill="none" xmlns="http://www.w3.org/2000/svg">
<path fill-rule="evenodd" clip-rule="evenodd" d="M11.9909 1.31589C12.3247 1.22804 12.6755 1.22804 13.0092 1.31589C13.3964 1.41782 13.725 1.66653 13.9871 1.8649L14.0601 1.92L14.6668 2.37507C14.7432 2.43182 14.8206 2.49004 14.8993 2.54927L15.0201 2.64L23.1001 8.7C23.5419 9.03137 23.6314 9.65817 23.3001 10.1C22.9687 10.5418 22.3419 10.6314 21.9001 10.3L21.5001 10V17.8386C21.5001 18.3657 21.5001 18.8205 21.4695 19.195C21.4372 19.5904 21.3659 19.9836 21.1731 20.362C20.8855 20.9265 20.4265 21.3854 19.862 21.673C19.4837 21.8658 19.0904 21.9371 18.6951 21.9694C18.3205 22 17.8658 22 17.3386 22H7.6615C7.13436 22 6.6796 22 6.30503 21.9694C5.90969 21.9371 5.51647 21.8658 5.13809 21.673C4.57361 21.3854 4.11466 20.9265 3.82704 20.362C3.63425 19.9836 3.56293 19.5904 3.53063 19.195C3.50003 18.8205 3.50004 18.3657 3.50006 17.8385L3.50006 10L3.10006 10.3C2.65823 10.6314 2.03143 10.5418 1.70006 10.1C1.36869 9.65817 1.45823 9.03137 1.90006 8.7L9.98006 2.64L10.1007 2.5493C10.1794 2.49008 10.2568 2.43187 10.3332 2.37513L10.9401 1.92L11.0131 1.8649C11.2751 1.66653 11.6037 1.41782 11.9909 1.31589ZM9.50006 13.6V20H15.5001V13.6C15.5001 13.0399 15.5001 12.7599 15.3911 12.546C15.2952 12.3578 15.1422 12.2049 14.9541 12.109C14.7401 12 14.4601 12 13.9001 12H11.1001C10.54 12 10.26 12 10.0461 12.109C9.85791 12.2049 9.70493 12.3578 9.60905 12.546C9.50006 12.7599 9.50006 13.0399 9.50006 13.6Z" fill="#030F1A"/>
</svg>
