<svg width="21" height="20" viewBox="0 0 21 20" fill="none" xmlns="http://www.w3.org/2000/svg">
<path d="M6.9 1H3.1C2.53995 1 2.25992 1 2.04601 1.10899C1.85785 1.20487 1.70487 1.35785 1.60899 1.54601C1.5 1.75992 1.5 2.03995 1.5 2.6V6.4C1.5 6.96005 1.5 7.24008 1.60899 7.45399C1.70487 7.64215 1.85785 7.79513 2.04601 7.89101C2.25992 8 2.53995 8 3.1 8H6.9C7.46005 8 7.74008 8 7.95399 7.89101C8.14215 7.79513 8.29513 7.64215 8.39101 7.45399C8.5 7.24008 8.5 6.96005 8.5 6.4V2.6C8.5 2.03995 8.5 1.75992 8.39101 1.54601C8.29513 1.35785 8.14215 1.20487 7.95399 1.10899C7.74008 1 7.46005 1 6.9 1Z" stroke="#030F1A" stroke-width="2" stroke-linecap="round" stroke-linejoin="round"/>
<path d="M17.9 1H14.1C13.5399 1 13.2599 1 13.046 1.10899C12.8578 1.20487 12.7049 1.35785 12.609 1.54601C12.5 1.75992 12.5 2.03995 12.5 2.6V6.4C12.5 6.96005 12.5 7.24008 12.609 7.45399C12.7049 7.64215 12.8578 7.79513 13.046 7.89101C13.2599 8 13.5399 8 14.1 8H17.9C18.4601 8 18.7401 8 18.954 7.89101C19.1422 7.79513 19.2951 7.64215 19.391 7.45399C19.5 7.24008 19.5 6.96005 19.5 6.4V2.6C19.5 2.03995 19.5 1.75992 19.391 1.54601C19.2951 1.35785 19.1422 1.20487 18.954 1.10899C18.7401 1 18.4601 1 17.9 1Z" stroke="#030F1A" stroke-width="2" stroke-linecap="round" stroke-linejoin="round"/>
<path d="M17.9 12H14.1C13.5399 12 13.2599 12 13.046 12.109C12.8578 12.2049 12.7049 12.3578 12.609 12.546C12.5 12.7599 12.5 13.0399 12.5 13.6V17.4C12.5 17.9601 12.5 18.2401 12.609 18.454C12.7049 18.6422 12.8578 18.7951 13.046 18.891C13.2599 19 13.5399 19 14.1 19H17.9C18.4601 19 18.7401 19 18.954 18.891C19.1422 18.7951 19.2951 18.6422 19.391 18.454C19.5 18.2401 19.5 17.9601 19.5 17.4V13.6C19.5 13.0399 19.5 12.7599 19.391 12.546C19.2951 12.3578 19.1422 12.2049 18.954 12.109C18.7401 12 18.4601 12 17.9 12Z" stroke="#030F1A" stroke-width="2" stroke-linecap="round" stroke-linejoin="round"/>
<path d="M6.9 12H3.1C2.53995 12 2.25992 12 2.04601 12.109C1.85785 12.2049 1.70487 12.3578 1.60899 12.546C1.5 12.7599 1.5 13.0399 1.5 13.6V17.4C1.5 17.9601 1.5 18.2401 1.60899 18.454C1.70487 18.6422 1.85785 18.7951 2.04601 18.891C2.25992 19 2.53995 19 3.1 19H6.9C7.46005 19 7.74008 19 7.95399 18.891C8.14215 18.7951 8.29513 18.6422 8.39101 18.454C8.5 18.2401 8.5 17.9601 8.5 17.4V13.6C8.5 13.0399 8.5 12.7599 8.39101 12.546C8.29513 12.3578 8.14215 12.2049 7.95399 12.109C7.74008 12 7.46005 12 6.9 12Z" stroke="#030F1A" stroke-width="2" stroke-linecap="round" stroke-linejoin="round"/>
</svg>
