<svg width="23" height="22" viewBox="0 0 23 22" fill="none" xmlns="http://www.w3.org/2000/svg">
<path d="M4.50014 13H17.6359C18.6487 13 19.1551 13 19.5582 12.8112C19.9134 12.6448 20.2118 12.3777 20.4163 12.0432C20.6485 11.6633 20.7044 11.16 20.8163 10.1534L21.4013 4.88835C21.4355 4.58088 21.4525 4.42715 21.4031 4.30816C21.3597 4.20366 21.2821 4.11697 21.183 4.06228C21.0702 4 20.9155 4 20.6062 4H4.00014M1.5 1H2.74844C3.01306 1 3.14537 1 3.24889 1.05032C3.34002 1.09463 3.41554 1.16557 3.46544 1.25376C3.52212 1.35394 3.53037 1.48599 3.54688 1.7501L4.45312 16.2499C4.46963 16.514 4.47788 16.6461 4.53456 16.7462C4.58446 16.8344 4.65998 16.9054 4.75111 16.9497C4.85463 17 4.98694 17 5.25156 17H18.5M7 20.5H7.01M16 20.5H16.01M7.5 20.5C7.5 20.7761 7.27614 21 7 21C6.72386 21 6.5 20.7761 6.5 20.5C6.5 20.2239 6.72386 20 7 20C7.27614 20 7.5 20.2239 7.5 20.5ZM16.5 20.5C16.5 20.7761 16.2761 21 16 21C15.7239 21 15.5 20.7761 15.5 20.5C15.5 20.2239 15.7239 20 16 20C16.2761 20 16.5 20.2239 16.5 20.5Z" stroke="black" stroke-width="2" stroke-linecap="round" stroke-linejoin="round"/>
</svg>
